<mxfile host="app.diagrams.net" agent="Mozilla/5.0 (X11; Ubuntu; Linux x86_64; rv:133.0) Gecko/20100101 Firefox/133.0" version="26.0.2">
  <diagram name="Page-1" id="ib_But5hpt7C5YkDKGLm">
    <mxGraphModel dx="1366" dy="753" grid="1" gridSize="10" guides="1" tooltips="1" connect="1" arrows="1" fold="1" page="1" pageScale="1" pageWidth="850" pageHeight="1100" math="0" shadow="0">
      <root>
        <mxCell id="0" />
        <mxCell id="1" parent="0" />
        <mxCell id="73aHcgRDJQOOrU7m7a97-9" style="edgeStyle=orthogonalEdgeStyle;rounded=0;orthogonalLoop=1;jettySize=auto;html=1;fillColor=#d5e8d4;strokeColor=#82b366;dashed=1;dashPattern=12 12;" edge="1" parent="1" source="73aHcgRDJQOOrU7m7a97-1" target="73aHcgRDJQOOrU7m7a97-2">
          <mxGeometry relative="1" as="geometry">
            <Array as="points">
              <mxPoint x="400" y="170" />
              <mxPoint x="400" y="170" />
            </Array>
          </mxGeometry>
        </mxCell>
        <mxCell id="73aHcgRDJQOOrU7m7a97-10" value="Step 2: define approle" style="edgeLabel;html=1;align=center;verticalAlign=middle;resizable=0;points=[];" vertex="1" connectable="0" parent="73aHcgRDJQOOrU7m7a97-9">
          <mxGeometry x="-0.7702" y="-2" relative="1" as="geometry">
            <mxPoint x="12" as="offset" />
          </mxGeometry>
        </mxCell>
        <mxCell id="73aHcgRDJQOOrU7m7a97-1" value="" style="sketch=0;pointerEvents=1;shadow=0;dashed=0;html=1;strokeColor=none;fillColor=#000000;labelPosition=center;verticalLabelPosition=bottom;verticalAlign=top;outlineConnect=0;align=center;shape=mxgraph.office.services.user_services;" vertex="1" parent="1">
          <mxGeometry x="340" y="70" width="60" height="59" as="geometry" />
        </mxCell>
        <mxCell id="73aHcgRDJQOOrU7m7a97-74" style="edgeStyle=orthogonalEdgeStyle;rounded=0;orthogonalLoop=1;jettySize=auto;html=1;exitX=0.641;exitY=0.999;exitDx=0;exitDy=0;fillColor=#e1d5e7;strokeColor=#9673a6;dashed=1;dashPattern=12 12;exitPerimeter=0;" edge="1" parent="1" source="73aHcgRDJQOOrU7m7a97-2" target="73aHcgRDJQOOrU7m7a97-28">
          <mxGeometry relative="1" as="geometry">
            <Array as="points">
              <mxPoint x="490" y="410" />
              <mxPoint x="490" y="560" />
            </Array>
          </mxGeometry>
        </mxCell>
        <mxCell id="73aHcgRDJQOOrU7m7a97-75" value="2 - return&lt;br&gt; VAULT_TOKEN" style="edgeLabel;html=1;align=center;verticalAlign=middle;resizable=0;points=[];" vertex="1" connectable="0" parent="73aHcgRDJQOOrU7m7a97-74">
          <mxGeometry x="0.0385" y="-2" relative="1" as="geometry">
            <mxPoint x="9" y="-8" as="offset" />
          </mxGeometry>
        </mxCell>
        <mxCell id="73aHcgRDJQOOrU7m7a97-2" value="" style="shape=image;verticalLabelPosition=bottom;labelBackgroundColor=default;verticalAlign=top;aspect=fixed;imageAspect=0;image=data:image/svg+xml,PHN2ZyB4bWxucz0iaHR0cDovL3d3dy53My5vcmcvMjAwMC9zdmciIHZpZXdCb3g9IjAgMCAyNCAyNCIgaGVpZ2h0PSIxMDAlIiB3aWR0aD0iMTAwJSIgaWQ9Imljb24tZW1iZXI0IiBmaWxsPSJjdXJyZW50Q29sb3IiIGRhdGEtdGVzdC1pY29uPSJ2YXVsdCIgYXJpYS1oaWRkZW49InRydWUiIGNsYXNzPSJmbGlnaHQtaWNvbiBmbGlnaHQtaWNvbi12YXVsdCI+JiN4YTsJCTxwYXRoIGQ9Ik0xIDFsMTAuOTYgMjEuMzM0TDIzIDFIMXptOS4yNTYgOC40NjlIOC41MVY3LjcyM2gxLjc0NnYxLjc0NnptMC0yLjYySDguNTFWNS4xMDVoMS43NDZ2MS43NDR6bTIuNjE4IDUuMjM4aC0xLjc0NnYtMS43NDZoMS43NDZ2MS43NDZ6bTAtMi42MThoLTEuNzQ2VjcuNzIzaDEuNzQ2djEuNzQ2em0wLTIuNjJoLTEuNzQ2VjUuMTA1aDEuNzQ2djEuNzQ0em0yLjYwNCAyLjYyaC0xLjc0NlY3LjcyM2gxLjc0NnYxLjc0NnptLTEuNzQ2LTIuNjJWNS4xMDVoMS43NDZ2MS43NDRoLTEuNzQ2eiIvPiYjeGE7CTwvc3ZnPg==;" vertex="1" parent="1">
          <mxGeometry x="370" y="230" width="180" height="180" as="geometry" />
        </mxCell>
        <mxCell id="73aHcgRDJQOOrU7m7a97-6" style="edgeStyle=orthogonalEdgeStyle;rounded=0;orthogonalLoop=1;jettySize=auto;html=1;dashed=1;dashPattern=12 12;fillColor=#d5e8d4;strokeColor=#82b366;" edge="1" parent="1" source="73aHcgRDJQOOrU7m7a97-1" target="73aHcgRDJQOOrU7m7a97-2">
          <mxGeometry relative="1" as="geometry">
            <mxPoint x="380" y="210" as="targetPoint" />
            <Array as="points">
              <mxPoint x="340" y="210" />
              <mxPoint x="379" y="210" />
            </Array>
          </mxGeometry>
        </mxCell>
        <mxCell id="73aHcgRDJQOOrU7m7a97-8" value="Step 1: add default policies" style="edgeLabel;html=1;align=center;verticalAlign=middle;resizable=0;points=[];" vertex="1" connectable="0" parent="73aHcgRDJQOOrU7m7a97-6">
          <mxGeometry x="-0.3429" relative="1" as="geometry">
            <mxPoint x="-20" y="-5" as="offset" />
          </mxGeometry>
        </mxCell>
        <mxCell id="73aHcgRDJQOOrU7m7a97-11" style="edgeStyle=orthogonalEdgeStyle;rounded=0;orthogonalLoop=1;jettySize=auto;html=1;fillColor=#d5e8d4;strokeColor=#82b366;dashed=1;dashPattern=12 12;entryX=0.649;entryY=-0.02;entryDx=0;entryDy=0;entryPerimeter=0;" edge="1" parent="1" source="73aHcgRDJQOOrU7m7a97-1" target="73aHcgRDJQOOrU7m7a97-2">
          <mxGeometry relative="1" as="geometry">
            <mxPoint x="490" y="190" as="targetPoint" />
            <Array as="points">
              <mxPoint x="487" y="100" />
            </Array>
          </mxGeometry>
        </mxCell>
        <mxCell id="73aHcgRDJQOOrU7m7a97-13" value="Step 3: register plugin" style="edgeLabel;html=1;align=center;verticalAlign=middle;resizable=0;points=[];" vertex="1" connectable="0" parent="73aHcgRDJQOOrU7m7a97-11">
          <mxGeometry x="-0.2045" y="-1" relative="1" as="geometry">
            <mxPoint x="1" y="9" as="offset" />
          </mxGeometry>
        </mxCell>
        <mxCell id="73aHcgRDJQOOrU7m7a97-17" value="1" style="ellipse;whiteSpace=wrap;html=1;aspect=fixed;strokeColor=default;dashed=1;dashPattern=8 8;" vertex="1" parent="1">
          <mxGeometry x="290" y="70" width="30" height="30" as="geometry" />
        </mxCell>
        <mxCell id="73aHcgRDJQOOrU7m7a97-18" value="" style="group" vertex="1" connectable="0" parent="1">
          <mxGeometry x="580" y="170" width="265" height="110" as="geometry" />
        </mxCell>
        <mxCell id="73aHcgRDJQOOrU7m7a97-98" value="" style="group" vertex="1" connectable="0" parent="73aHcgRDJQOOrU7m7a97-18">
          <mxGeometry x="-29.38" y="30" width="290" height="80" as="geometry" />
        </mxCell>
        <mxCell id="73aHcgRDJQOOrU7m7a97-15" value="&lt;p&gt;The initial configuration requires a Vault admin to create default policies for both users and the plugin&#39;s AppRole. This setup is performed only once.&lt;/p&gt;" style="text;html=1;align=center;verticalAlign=middle;whiteSpace=wrap;rounded=0;" vertex="1" parent="73aHcgRDJQOOrU7m7a97-98">
          <mxGeometry x="50" width="240" height="80" as="geometry" />
        </mxCell>
        <mxCell id="73aHcgRDJQOOrU7m7a97-16" value="1" style="ellipse;whiteSpace=wrap;html=1;aspect=fixed;strokeColor=default;dashed=1;dashPattern=8 8;" vertex="1" parent="73aHcgRDJQOOrU7m7a97-98">
          <mxGeometry y="25" width="30" height="30" as="geometry" />
        </mxCell>
        <mxCell id="73aHcgRDJQOOrU7m7a97-25" style="edgeStyle=orthogonalEdgeStyle;rounded=0;orthogonalLoop=1;jettySize=auto;html=1;fillColor=#d5e8d4;strokeColor=#82b366;dashed=1;dashPattern=12 12;" edge="1" parent="1">
          <mxGeometry relative="1" as="geometry">
            <mxPoint x="610" y="110" as="sourcePoint" />
            <mxPoint x="730" y="110" as="targetPoint" />
            <Array as="points">
              <mxPoint x="620" y="110" />
            </Array>
          </mxGeometry>
        </mxCell>
        <mxCell id="73aHcgRDJQOOrU7m7a97-82" value="&lt;div&gt;Initial&lt;/div&gt;&lt;div&gt;&lt;br&gt;&lt;/div&gt;" style="edgeLabel;html=1;align=center;verticalAlign=middle;resizable=0;points=[];" vertex="1" connectable="0" parent="73aHcgRDJQOOrU7m7a97-25">
          <mxGeometry x="-0.0603" y="-2" relative="1" as="geometry">
            <mxPoint x="104" as="offset" />
          </mxGeometry>
        </mxCell>
        <mxCell id="73aHcgRDJQOOrU7m7a97-29" style="edgeStyle=orthogonalEdgeStyle;rounded=0;orthogonalLoop=1;jettySize=auto;html=1;entryX=0.5;entryY=1;entryDx=0;entryDy=0;fillColor=#e1d5e7;strokeColor=#9673a6;dashed=1;dashPattern=12 12;" edge="1" parent="1" source="73aHcgRDJQOOrU7m7a97-28" target="73aHcgRDJQOOrU7m7a97-2">
          <mxGeometry relative="1" as="geometry">
            <Array as="points">
              <mxPoint x="460" y="520" />
            </Array>
          </mxGeometry>
        </mxCell>
        <mxCell id="73aHcgRDJQOOrU7m7a97-30" value="1 - login to Vault" style="edgeLabel;html=1;align=center;verticalAlign=middle;resizable=0;points=[];" vertex="1" connectable="0" parent="73aHcgRDJQOOrU7m7a97-29">
          <mxGeometry x="-0.6181" y="-4" relative="1" as="geometry">
            <mxPoint x="-20" y="-4" as="offset" />
          </mxGeometry>
        </mxCell>
        <mxCell id="73aHcgRDJQOOrU7m7a97-39" style="edgeStyle=orthogonalEdgeStyle;rounded=0;orthogonalLoop=1;jettySize=auto;html=1;entryX=0.869;entryY=1.01;entryDx=0;entryDy=0;fillColor=#e1d5e7;strokeColor=#9673a6;dashed=1;dashPattern=12 12;entryPerimeter=0;" edge="1" parent="1" source="73aHcgRDJQOOrU7m7a97-28" target="73aHcgRDJQOOrU7m7a97-36">
          <mxGeometry relative="1" as="geometry">
            <Array as="points">
              <mxPoint x="280" y="510" />
              <mxPoint x="173" y="510" />
            </Array>
          </mxGeometry>
        </mxCell>
        <mxCell id="73aHcgRDJQOOrU7m7a97-46" value="&lt;div&gt;3 - register&lt;/div&gt;" style="edgeLabel;html=1;align=center;verticalAlign=middle;resizable=0;points=[];" vertex="1" connectable="0" parent="73aHcgRDJQOOrU7m7a97-39">
          <mxGeometry x="0.0239" y="-4" relative="1" as="geometry">
            <mxPoint x="63" y="9" as="offset" />
          </mxGeometry>
        </mxCell>
        <mxCell id="73aHcgRDJQOOrU7m7a97-28" value="&lt;div&gt;user&lt;/div&gt;&lt;div&gt;&lt;br&gt;&lt;/div&gt;" style="sketch=0;pointerEvents=1;shadow=0;dashed=0;html=1;strokeColor=none;fillColor=#000000;labelPosition=center;verticalLabelPosition=bottom;verticalAlign=top;outlineConnect=0;align=center;shape=mxgraph.office.users.user;" vertex="1" parent="1">
          <mxGeometry x="264" y="520" width="46" height="50" as="geometry" />
        </mxCell>
        <mxCell id="73aHcgRDJQOOrU7m7a97-57" style="edgeStyle=orthogonalEdgeStyle;rounded=0;orthogonalLoop=1;jettySize=auto;html=1;fillColor=#e1d5e7;strokeColor=#9673a6;dashed=1;dashPattern=12 12;" edge="1" parent="1" source="73aHcgRDJQOOrU7m7a97-36" target="73aHcgRDJQOOrU7m7a97-28">
          <mxGeometry relative="1" as="geometry">
            <Array as="points">
              <mxPoint x="120" y="545" />
            </Array>
          </mxGeometry>
        </mxCell>
        <mxCell id="73aHcgRDJQOOrU7m7a97-58" value="7 - return &lt;br&gt;users UUK" style="edgeLabel;html=1;align=center;verticalAlign=middle;resizable=0;points=[];" vertex="1" connectable="0" parent="73aHcgRDJQOOrU7m7a97-57">
          <mxGeometry x="-0.3851" y="-2" relative="1" as="geometry">
            <mxPoint y="-65" as="offset" />
          </mxGeometry>
        </mxCell>
        <mxCell id="73aHcgRDJQOOrU7m7a97-60" style="edgeStyle=orthogonalEdgeStyle;rounded=0;orthogonalLoop=1;jettySize=auto;html=1;exitX=1;exitY=1;exitDx=0;exitDy=0;entryX=1.015;entryY=0.83;entryDx=0;entryDy=0;entryPerimeter=0;fillColor=#e1d5e7;strokeColor=#9673a6;dashed=1;dashPattern=12 12;" edge="1" parent="1" source="73aHcgRDJQOOrU7m7a97-36" target="73aHcgRDJQOOrU7m7a97-36">
          <mxGeometry relative="1" as="geometry">
            <mxPoint x="260" y="320" as="targetPoint" />
            <Array as="points">
              <mxPoint x="190" y="410" />
              <mxPoint x="260" y="410" />
              <mxPoint x="260" y="363" />
            </Array>
          </mxGeometry>
        </mxCell>
        <mxCell id="73aHcgRDJQOOrU7m7a97-61" value="4 - store user&lt;br&gt;UUK" style="edgeLabel;html=1;align=center;verticalAlign=middle;resizable=0;points=[];" vertex="1" connectable="0" parent="73aHcgRDJQOOrU7m7a97-60">
          <mxGeometry x="0.2338" y="-1" relative="1" as="geometry">
            <mxPoint y="13" as="offset" />
          </mxGeometry>
        </mxCell>
        <mxCell id="73aHcgRDJQOOrU7m7a97-36" value="pwmanager&lt;br&gt;plugin" style="rounded=1;whiteSpace=wrap;html=1;" vertex="1" parent="1">
          <mxGeometry x="60" y="280" width="130" height="100" as="geometry" />
        </mxCell>
        <mxCell id="73aHcgRDJQOOrU7m7a97-47" style="edgeStyle=orthogonalEdgeStyle;rounded=0;orthogonalLoop=1;jettySize=auto;html=1;entryX=0.006;entryY=0.556;entryDx=0;entryDy=0;entryPerimeter=0;fillColor=#fff2cc;strokeColor=#d6b656;dashed=1;dashPattern=12 12;" edge="1" parent="1">
          <mxGeometry relative="1" as="geometry">
            <mxPoint x="190" y="290" as="sourcePoint" />
            <mxPoint x="371.0799999999999" y="290.0799999999999" as="targetPoint" />
          </mxGeometry>
        </mxCell>
        <mxCell id="73aHcgRDJQOOrU7m7a97-48" value="1 - login approle" style="edgeLabel;html=1;align=center;verticalAlign=middle;resizable=0;points=[];" vertex="1" connectable="0" parent="73aHcgRDJQOOrU7m7a97-47">
          <mxGeometry x="-0.0727" y="-1" relative="1" as="geometry">
            <mxPoint x="-1" as="offset" />
          </mxGeometry>
        </mxCell>
        <mxCell id="73aHcgRDJQOOrU7m7a97-50" style="edgeStyle=orthogonalEdgeStyle;rounded=0;orthogonalLoop=1;jettySize=auto;html=1;entryX=0.006;entryY=0.556;entryDx=0;entryDy=0;entryPerimeter=0;fillColor=#e1d5e7;strokeColor=#9673a6;dashed=1;dashPattern=12 12;" edge="1" parent="1">
          <mxGeometry relative="1" as="geometry">
            <mxPoint x="190" y="340" as="sourcePoint" />
            <mxPoint x="371" y="340" as="targetPoint" />
          </mxGeometry>
        </mxCell>
        <mxCell id="73aHcgRDJQOOrU7m7a97-51" value="5 - create users secret KVs&lt;br&gt;update user policy" style="edgeLabel;html=1;align=center;verticalAlign=middle;resizable=0;points=[];" vertex="1" connectable="0" parent="73aHcgRDJQOOrU7m7a97-50">
          <mxGeometry x="-0.0727" y="-1" relative="1" as="geometry">
            <mxPoint y="-1" as="offset" />
          </mxGeometry>
        </mxCell>
        <mxCell id="73aHcgRDJQOOrU7m7a97-67" value="2" style="ellipse;whiteSpace=wrap;html=1;aspect=fixed;strokeColor=default;" vertex="1" parent="1">
          <mxGeometry x="190" y="250" width="30" height="30" as="geometry" />
        </mxCell>
        <mxCell id="73aHcgRDJQOOrU7m7a97-72" style="edgeStyle=orthogonalEdgeStyle;rounded=0;orthogonalLoop=1;jettySize=auto;html=1;entryX=0.071;entryY=1.022;entryDx=0;entryDy=0;entryPerimeter=0;fillColor=#e1d5e7;strokeColor=#9673a6;dashed=1;dashPattern=12 12;" edge="1" parent="1" target="73aHcgRDJQOOrU7m7a97-36">
          <mxGeometry relative="1" as="geometry">
            <mxPoint x="260" y="581" as="sourcePoint" />
          </mxGeometry>
        </mxCell>
        <mxCell id="73aHcgRDJQOOrU7m7a97-73" value="6 - login to &lt;br&gt;pwmanager" style="edgeLabel;html=1;align=center;verticalAlign=middle;resizable=0;points=[];" vertex="1" connectable="0" parent="73aHcgRDJQOOrU7m7a97-72">
          <mxGeometry x="0.6084" y="4" relative="1" as="geometry">
            <mxPoint x="140" y="120" as="offset" />
          </mxGeometry>
        </mxCell>
        <mxCell id="73aHcgRDJQOOrU7m7a97-76" value="3" style="ellipse;whiteSpace=wrap;html=1;aspect=fixed;strokeColor=default;" vertex="1" parent="1">
          <mxGeometry x="310" y="480" width="30" height="30" as="geometry" />
        </mxCell>
        <mxCell id="73aHcgRDJQOOrU7m7a97-77" style="edgeStyle=orthogonalEdgeStyle;rounded=0;orthogonalLoop=1;jettySize=auto;html=1;fillColor=#fff2cc;strokeColor=#d6b656;dashed=1;dashPattern=12 12;" edge="1" parent="1">
          <mxGeometry relative="1" as="geometry">
            <mxPoint x="610" y="140" as="sourcePoint" />
            <mxPoint x="730" y="140.08" as="targetPoint" />
          </mxGeometry>
        </mxCell>
        <mxCell id="73aHcgRDJQOOrU7m7a97-83" value="pwmanager" style="edgeLabel;html=1;align=center;verticalAlign=middle;resizable=0;points=[];" vertex="1" connectable="0" parent="73aHcgRDJQOOrU7m7a97-77">
          <mxGeometry x="-0.0771" y="1" relative="1" as="geometry">
            <mxPoint x="105" as="offset" />
          </mxGeometry>
        </mxCell>
        <mxCell id="73aHcgRDJQOOrU7m7a97-79" style="edgeStyle=orthogonalEdgeStyle;rounded=0;orthogonalLoop=1;jettySize=auto;html=1;fillColor=#e1d5e7;strokeColor=#9673a6;dashed=1;dashPattern=12 12;" edge="1" parent="1">
          <mxGeometry relative="1" as="geometry">
            <mxPoint x="604.5" y="170" as="sourcePoint" />
            <mxPoint x="730" y="170" as="targetPoint" />
          </mxGeometry>
        </mxCell>
        <mxCell id="73aHcgRDJQOOrU7m7a97-84" value="user &lt;br&gt;registering" style="edgeLabel;html=1;align=center;verticalAlign=middle;resizable=0;points=[];" vertex="1" connectable="0" parent="73aHcgRDJQOOrU7m7a97-79">
          <mxGeometry x="-0.3781" y="-1" relative="1" as="geometry">
            <mxPoint x="126" y="-1" as="offset" />
          </mxGeometry>
        </mxCell>
        <mxCell id="73aHcgRDJQOOrU7m7a97-85" value="&lt;h1 align=&quot;center&quot; style=&quot;margin-top: 0px;&quot;&gt;&lt;font style=&quot;font-size: 20px;&quot;&gt;PWmanager User Register Flow&lt;/font&gt;&lt;br&gt;&lt;/h1&gt;&lt;p&gt;&lt;br&gt;&lt;/p&gt;" style="text;html=1;whiteSpace=wrap;overflow=hidden;rounded=0;" vertex="1" parent="1">
          <mxGeometry x="35" y="80" width="180" height="80" as="geometry" />
        </mxCell>
        <mxCell id="73aHcgRDJQOOrU7m7a97-94" value="" style="group" vertex="1" connectable="0" parent="1">
          <mxGeometry x="550" y="420" width="290.62" height="180" as="geometry" />
        </mxCell>
        <mxCell id="73aHcgRDJQOOrU7m7a97-91" value="&lt;p&gt;Users who are granted access to the pwmanager plugin path can register. During this process, a unique user key (UUK) is generated. The UUK holds the user&#39;s encrypted password bundle, which includes the encrypted symmetric key used to decrypt the private key. The user can decrypt this bundle using their pwmanager password and secret key ( i.e. the key provided to the user after&amp;nbsp; registering ) through a two secret key derivation process.&lt;/p&gt;" style="text;whiteSpace=wrap;html=1;align=center;container=0;" vertex="1" parent="73aHcgRDJQOOrU7m7a97-94">
          <mxGeometry x="50" width="240.62" height="180" as="geometry" />
        </mxCell>
        <mxCell id="73aHcgRDJQOOrU7m7a97-92" value="3" style="ellipse;whiteSpace=wrap;html=1;aspect=fixed;strokeColor=default;container=0;" vertex="1" parent="73aHcgRDJQOOrU7m7a97-94">
          <mxGeometry y="65" width="30" height="30" as="geometry" />
        </mxCell>
        <mxCell id="73aHcgRDJQOOrU7m7a97-97" value="" style="group" vertex="1" connectable="0" parent="1">
          <mxGeometry x="550" y="280" width="290" height="130" as="geometry" />
        </mxCell>
        <mxCell id="73aHcgRDJQOOrU7m7a97-95" value="&lt;p align=&quot;center&quot;&gt;The password manager will log in to the AppRole created during the &lt;br&gt;initial configuration on startup. This AppRole provides the necessary permissions &lt;br&gt;for the pwmanager to create user vaults (i.e., kv-v2 secret mounts) and &lt;br&gt;modify user pwmanager policies.&lt;/p&gt;" style="text;whiteSpace=wrap;html=1;align=center;" vertex="1" parent="73aHcgRDJQOOrU7m7a97-97">
          <mxGeometry x="50.62" width="239.38" height="130" as="geometry" />
        </mxCell>
        <mxCell id="73aHcgRDJQOOrU7m7a97-96" value="2" style="ellipse;whiteSpace=wrap;html=1;aspect=fixed;strokeColor=default;container=0;" vertex="1" parent="73aHcgRDJQOOrU7m7a97-97">
          <mxGeometry y="50" width="30" height="30" as="geometry" />
        </mxCell>
      </root>
    </mxGraphModel>
  </diagram>
</mxfile>
